<?xml version="1.0" encoding="UTF-8" standalone="no"?>


<svg
   version="1.1"
   id="svg2907"
   width="512"
   height="112.84134"
   viewBox="0 0 512 112.84134"
   sodipodi:docname="Gopay (2023).svg"
   inkscape:version="1.1.1 (3bf5ae0d25, 2021-09-20)"
   xmlns:inkscape="http://www.inkscape.org/namespaces/inkscape"
   xmlns:sodipodi="http://sodipodi.sourceforge.net/DTD/sodipodi-0.dtd"
   xmlns="http://www.w3.org/2000/svg"
   xmlns:svg="http://www.w3.org/2000/svg">
  <defs
     id="defs2911">
    <clipPath
       id="clip0_65_482">
      <rect
         width="93.656197"
         height="23.625"
         fill="#ffffff"
         transform="translate(37.687,6.99878)"
         id="rect843"
         x="0"
         y="0" />
    </clipPath>
  </defs>
  <sodipodi:namedview
     id="namedview2909"
     pagecolor="#ffffff"
     bordercolor="#666666"
     borderopacity="1.0"
     inkscape:pageshadow="2"
     inkscape:pageopacity="0.0"
     inkscape:pagecheckerboard="0"
     showgrid="false"
     inkscape:zoom="0.27154101"
     inkscape:cx="896.73381"
     inkscape:cy="362.74448"
     inkscape:window-width="1366"
     inkscape:window-height="715"
     inkscape:window-x="-8"
     inkscape:window-y="-8"
     inkscape:window-maximized="1"
     inkscape:current-layer="g2913" />
  <g
     inkscape:groupmode="layer"
     inkscape:label="Image"
     id="g2913"
     transform="translate(-3.7224892,-1.0655891)">
    <path
       id="path3241"
       style="fill:#00aed6;fill-opacity:1;fill-rule:evenodd;stroke-width:13.8568"
       d="m 101.5929,67.640804 v 5.138401 c -0.003,2.202312 -2.634054,3.986117 -4.983382,3.986117 -2.349327,0 -4.980316,-1.783805 -4.983382,-3.986117 v -5.138401 c -1.445033,-1.267661 -1.624607,-2.983831 -1.821878,-4.829833 -0.04899,-3.541534 3.034708,-6.420121 6.812411,-6.359285 3.793301,-0.07581 6.902821,2.802679 6.869671,6.359285 -0.36364,1.81119 -0.54679,3.48707 -1.89344,4.829833 z M 122.54685,53.696441 C 121.95143,40.419761 111.03407,30.054939 97.959183,30.353177 H 31.2376 c -2.347544,4e-6 -4.250607,-1.933944 -4.250609,-4.319591 0.151821,-2.321254 1.966953,-4.172056 4.250609,-4.334139 H 98.689081 C 98.127959,13.318589 91.951608,4.9879058 83.7905,3.6534985 64.820687,0.20295264 45.398655,0.20295264 26.428838,3.6534985 15.753345,5.3650086 7.4335234,15.418623 5.9343511,26.295385 c -2.9491492,20.665713 -2.9491492,41.655707 0,62.321423 1.7900293,11.222152 10.6864189,19.877082 21.7968619,21.205282 23.671711,2.98153 47.629645,2.98153 71.30136,0 10.622927,-1.22892 19.244897,-9.29694 21.324557,-19.954484 2.03229,-11.92616 2.7765,-24.055933 2.20403,-36.156612 z" />
    <g
       clip-path="url(#clip0_65_482)"
       id="g841"
       transform="matrix(3.9095081,0,0,3.9092316,8.2158342,-5.8085196)"
       style="fill:#000000;fill-opacity:1">
      <path
         fill-rule="evenodd"
         clip-rule="evenodd"
         d="m 64.823957,6.9682952 c -4.621253,0 -8.367087,3.7290348 -8.367087,8.3295048 0,4.600571 3.745834,8.329555 8.367087,8.329555 4.621253,0 8.366985,-3.728984 8.366985,-8.329555 0,-4.60047 -3.745732,-8.3295048 -8.366985,-8.3295048 z m 0,12.9170608 c -2.543632,0 -4.608239,-2.055325 -4.608239,-4.587556 0,-2.532231 2.064607,-4.587556 4.608239,-4.587556 2.543631,0 4.608137,2.055325 4.608137,4.587556 0,2.532231 -2.064506,4.587556 -4.608137,4.587556 z"
         fill="#454545"
         id="path831"
         style="fill:#000000;fill-opacity:1;stroke-width:1.0089" />
      <path
         fill-rule="evenodd"
         clip-rule="evenodd"
         d="M 54.1609,7.26524 H 50.841 c -0.1684,0 -0.3022,0.13323 -0.3022,0.30085 V 7.96578 8.61475 C 49.9473,7.9314 49.0105,7.5532 48.6392,7.42426 47.806,7.1449 46.9124,6.99878 45.9799,6.99878 c -4.5158,0.01289 -8.2285,3.66602 -8.2933,8.16152 -0.0647,4.6287 3.6825,8.4022 8.3192,8.4022 0.9238,0 1.8175,-0.1504 2.6464,-0.4298 0.3799,-0.1332 1.3038,-0.5114 1.8909,-1.1862 v 0.6447 0.1547 c 0,1.4011 -0.4878,2.5443 -1.416,3.3093 -0.803,0.6662 -1.9298,1.0315 -3.1731,1.0315 -1.8046,0 -3.5358,-0.7349 -4.5503,-1.9082 -0.1123,-0.129 -0.3109,-0.1376 -0.436,-0.0172 l -2.2018,2.136 c -0.1209,0.116 -0.1209,0.3051 -0.0043,0.4255 1.8736,1.9082 4.3085,2.8838 7.2398,2.901 h 0.9369 c 4.1444,0 7.5032,-3.3437 7.5032,-7.4696 v -1.4569 c 0,0 0,-0.0215 0,-0.0344 L 54.4587,7.56179 c 0,-0.16761 -0.1338,-0.30084 -0.3022,-0.30084 z m -3.6221,8.06266 c -0.0259,2.4712 -2.0464,4.4654 -4.533,4.4654 -2.4867,0 -4.533,-2.0199 -4.533,-4.5127 0,-2.4927 2.029,-4.5127 4.533,-4.5127 2.5039,0 4.5071,1.9942 4.533,4.4655 z"
         fill="#454545"
         id="path833"
         style="fill:#000000;fill-opacity:1" />
      <path
         d="m 94.736701,18.930574 c 0,-2.902397 1.903236,-4.444023 6.933979,-5.124458 2.94579,-0.413412 3.75038,-0.831132 3.75038,-1.597636 0,-1.037737 -1.09917,-1.657854 -2.7985,-1.657854 -1.92077,0 -3.387229,0.986135 -3.858755,2.55792 -0.04319,0.142079 -0.190273,0.232457 -0.337362,0.198089 l -3.607581,-0.745062 c -0.164322,-0.03437 -0.263818,-0.193781 -0.224941,-0.357402 0.761294,-3.0961666 3.927709,-5.1846959 7.911399,-5.1846959 4.61107,0 7.47068,2.3382895 7.47068,6.1622149 v 9.891515 c 0,0.159312 -0.13026,0.288466 -0.28957,0.288466 h -3.37462 c -0.15931,0 -0.28957,-0.129154 -0.28957,-0.288466 V 21.44541 h -0.0601 c -0.95187,1.33492 -2.97685,2.161743 -5.32546,2.161743 -3.512273,0 -5.891342,-1.894719 -5.891342,-4.680888 z m 11.177329,-1.61487 v -1.942112 h -0.0601 c -0.40279,0.58565 -1.2675,0.925817 -3.49989,1.326303 -2.694757,0.495272 -3.650734,1.016295 -3.650734,1.972271 0,0.955977 0.80458,1.416781 2.539554,1.416781 2.66424,0 4.6752,-1.201458 4.6752,-2.773243 z"
         fill="#454545"
         id="path835"
         style="fill:#000000;fill-opacity:1;stroke-width:1.00197" />
      <path
         fill-rule="evenodd"
         clip-rule="evenodd"
         d="m 84.194712,7.0107951 c -1.6794,-0.00859 -3.2465,0.47706 -4.5546,1.32372 v -0.72203 c 0,-0.16761 -0.1338,-0.30084 -0.3022,-0.30084 h -3.281 c -0.1684,0 -0.3022,0.13323 -0.3022,0.30084 V 29.793395 c 0,0.1676 0.1338,0.3009 0.3022,0.3009 h 3.2853 c 0.1684,0 0.3022,-0.1333 0.3022,-0.3009 v -1.0486 -6.4725 c 1.2995,0.8381 2.8494,1.3237 4.5158,1.3237 4.6409,0 8.3925,-3.7778 8.3278,-8.4108 -0.0648,-4.4955 -3.7689,-8.1486099 -8.2847,-8.1700999 z m -0.0432,12.8116999 c -2.3442,0 -4.2696,-1.7664 -4.5157,-4.0313 v -0.9756 c 0.2461,-2.2649 2.1715,-4.0313 4.5157,-4.0313 2.5083,0 4.5417,2.0242 4.5417,4.5213 0,2.497 -2.0334,4.5212 -4.5417,4.5212 z"
         fill="#454545"
         id="path837"
         style="fill:#000000;fill-opacity:1" />
      <path
         d="m 114.3456,29.660295 3.54,-7.0398 -7.309,-14.8832499 c -0.1,-0.1977 0.047,-0.42978 0.272,-0.42978 h 4.032 c 0.116,0 0.224,0.06876 0.272,0.17191 l 5.051,10.7703199 4.973,-10.7703199 c 0.048,-0.10745 0.156,-0.17621 0.272,-0.17621 h 4.063 c 0.224,0 0.367,0.23208 0.272,0.42978 l -10.867,22.1895499 c -0.051,0.1031 -0.155,0.1676 -0.272,0.1676 h -4.032 c -0.224,0 -0.371,-0.2364 -0.267,-0.4341 z"
         fill="#454545"
         id="path839"
         style="fill:#000000;fill-opacity:1" />
    </g>
  </g>
</svg>
